<svg width="31" height="31" viewBox="0 0 31 31" fill="none" xmlns="http://www.w3.org/2000/svg">
<path d="M14.8125 28.9062C7.04375 28.9062 0.71875 22.5812 0.71875 14.8125C0.71875 7.04375 7.04375 0.71875 14.8125 0.71875C22.5813 0.71875 28.9063 7.04375 28.9063 14.8125C28.9063 22.5812 22.5813 28.9062 14.8125 28.9062ZM14.8125 2.78125C8.17125 2.78125 2.78125 8.185 2.78125 14.8125C2.78125 21.44 8.17125 26.8438 14.8125 26.8438C21.4538 26.8438 26.8438 21.44 26.8438 14.8125C26.8438 8.185 21.4538 2.78125 14.8125 2.78125Z" fill="#828282"/>
<path d="M29.25 30.2817C28.9888 30.2817 28.7275 30.1855 28.5213 29.9792L25.7713 27.2292C25.5795 27.0352 25.4719 26.7733 25.4719 26.5005C25.4719 26.2276 25.5795 25.9658 25.7713 25.7717C26.17 25.373 26.83 25.373 27.2288 25.7717L29.9788 28.5217C30.3775 28.9205 30.3775 29.5805 29.9788 29.9792C29.7725 30.1855 29.5113 30.2817 29.25 30.2817Z" fill="#828282"/>
</svg>
