<svg width="29" height="36" viewBox="0 0 29 36" fill="none" xmlns="http://www.w3.org/2000/svg">
<path d="M14.3875 23.834C18.255 23.834 21.3875 20.8506 21.3875 17.1673V8.00065C21.3875 4.31732 18.255 1.33398 14.3875 1.33398C10.52 1.33398 7.38745 4.31732 7.38745 8.00065V17.1673C7.38745 20.8506 10.52 23.834 14.3875 23.834Z" stroke="#828282" stroke-width="1.5" stroke-linecap="round" stroke-linejoin="round"/>
<path d="M1 14.084V16.9173C1 23.9507 7.0025 29.6673 14.3875 29.6673C21.7725 29.6673 27.775 23.9507 27.775 16.9173V14.084" stroke="#828282" stroke-width="1.5" stroke-linecap="round" stroke-linejoin="round"/>
<path d="M11.9551 8.71719C13.5301 8.16719 15.2451 8.16719 16.8201 8.71719" stroke="#828282" stroke-width="1.5" stroke-linecap="round" stroke-linejoin="round"/>
<path d="M12.9875 12.2512C13.915 12.0178 14.8776 12.0178 15.8051 12.2512" stroke="#828282" stroke-width="1.5" stroke-linecap="round" stroke-linejoin="round"/>
<path d="M14.3875 29.667V34.667" stroke="#828282" stroke-width="1.5" stroke-linecap="round" stroke-linejoin="round"/>
</svg>
