<svg width="34" height="30" viewBox="0 0 34 30" fill="none" xmlns="http://www.w3.org/2000/svg">
<path d="M32.8335 6.29102H23.3335" stroke="#EB5757" stroke-width="1.5" stroke-miterlimit="10" stroke-linecap="round" stroke-linejoin="round"/>
<path d="M7.50008 6.29102H1.16675" stroke="#EB5757" stroke-width="1.5" stroke-miterlimit="10" stroke-linecap="round" stroke-linejoin="round"/>
<path d="M13.8334 11.8333C14.5612 11.8333 15.2818 11.69 15.9541 11.4115C16.6265 11.133 17.2374 10.7248 17.752 10.2102C18.2666 9.69562 18.6748 9.08472 18.9532 8.41237C19.2317 7.74002 19.3751 7.01941 19.3751 6.29167C19.3751 5.56392 19.2317 4.84331 18.9532 4.17096C18.6748 3.49862 18.2666 2.88771 17.752 2.37312C17.2374 1.85853 16.6265 1.45033 15.9541 1.17183C15.2818 0.893339 14.5612 0.75 13.8334 0.75C12.3637 0.75 10.9541 1.33385 9.91486 2.37312C8.8756 3.41238 8.29175 4.82192 8.29175 6.29167C8.29175 7.76141 8.8756 9.17095 9.91486 10.2102C10.9541 11.2495 12.3637 11.8333 13.8334 11.8333V11.8333Z" stroke="#EB5757" stroke-width="1.5" stroke-miterlimit="10" stroke-linecap="round" stroke-linejoin="round"/>
<path d="M32.8336 23.708H26.5002" stroke="#EB5757" stroke-width="1.5" stroke-miterlimit="10" stroke-linecap="round" stroke-linejoin="round"/>
<path d="M10.6667 23.708H1.16675" stroke="#EB5757" stroke-width="1.5" stroke-miterlimit="10" stroke-linecap="round" stroke-linejoin="round"/>
<path d="M20.1669 29.2503C21.6367 29.2503 23.0462 28.6665 24.0855 27.6272C25.1247 26.5879 25.7086 25.1784 25.7086 23.7087C25.7086 22.2389 25.1247 20.8294 24.0855 19.7901C23.0462 18.7508 21.6367 18.167 20.1669 18.167C18.6972 18.167 17.2876 18.7508 16.2484 19.7901C15.2091 20.8294 14.6252 22.2389 14.6252 23.7087C14.6252 25.1784 15.2091 26.5879 16.2484 27.6272C17.2876 28.6665 18.6972 29.2503 20.1669 29.2503V29.2503Z" stroke="#EB5757" stroke-width="1.5" stroke-miterlimit="10" stroke-linecap="round" stroke-linejoin="round"/>
</svg>
