<svg width="18" height="17" viewBox="0 0 18 17" fill="none" xmlns="http://www.w3.org/2000/svg">
<path fill-rule="evenodd" clip-rule="evenodd" d="M9.44702 17C14.1414 17 17.947 13.1943 17.947 8.5C17.947 3.80566 14.1414 0 9.44702 0C4.75259 0 0.947021 3.80566 0.947021 8.5C0.947021 13.1943 4.75259 17 9.44702 17ZM13.2127 4.73438C13.5251 5.04663 13.5251 5.55322 13.2127 5.86572L10.5784 8.5L13.2127 11.1343C13.5251 11.4468 13.5251 11.9534 13.2127 12.2656C12.9003 12.5781 12.3938 12.5781 12.0813 12.2656L9.44702 9.63135L6.81271 12.2656C6.50031 12.5781 5.99377 12.5781 5.68134 12.2656C5.36893 11.9534 5.36893 11.4468 5.68134 11.1343L8.31564 8.5L5.68134 5.86572C5.36893 5.55322 5.36893 5.04663 5.68134 4.73438C5.99374 4.42188 6.50027 4.42188 6.81271 4.73438L9.44702 7.36865L12.0813 4.73438C12.3938 4.42188 12.9003 4.42188 13.2127 4.73438Z" fill="#8E8E93"/>
</svg>
